HIERARCHY
ROOT Hips
{
	OFFSET -3.958830 18.904000 13.208200
	CHANNELS 6 Xposition Yposition Zposition Zrotation Yrotation Xrotation 
	JOINT LHipJoint
	{
		OFFSET 0.000000 0.000000 0.000000
		CHANNELS 3 Zrotation Yrotation Xrotation
		JOINT LeftUpLeg
		{
			OFFSET 1.800000 -1.400000 0.085000
			CHANNELS 3 Zrotation Yrotation Xrotation
			JOINT LeftLeg
			{
				OFFSET 2.215000 -6.000000 0.000000
				CHANNELS 3 Zrotation Yrotation Xrotation
				JOINT LeftFoot
				{
					OFFSET 2.500000 -6.900000 0.000000
					CHANNELS 3 Zrotation Yrotation Xrotation
					JOINT LeftToeBase
					{
						OFFSET 0.200000 -0.500000 1.950000
						CHANNELS 3 Zrotation Yrotation Xrotation
						End Site
						{
							OFFSET 0.000000 0.000000 0.000000
						}
					}
				}
			}
		}
	}
	JOINT RHipJoint
	{
		OFFSET 0.000000 0.000000 0.000000
		CHANNELS 3 Zrotation Yrotation Xrotation
		JOINT RightUpLeg
		{
			OFFSET -1.800000 -1.400000 0.085000
			CHANNELS 3 Zrotation Yrotation Xrotation
			JOINT RightLeg
			{
				OFFSET -2.215000 -6.000000 0.000000
				CHANNELS 3 Zrotation Yrotation Xrotation
				JOINT RightFoot
				{
					OFFSET -2.500000 -6.900000 0.000000
					CHANNELS 3 Zrotation Yrotation Xrotation
					JOINT RightToeBase
					{
						OFFSET -0.200000 -0.500000 1.950000
						CHANNELS 3 Zrotation Yrotation Xrotation
						End Site
						{
							OFFSET 0.000000 0.000000 0.000000
						}
					}
				}
			}
		}
	}
	JOINT LowerBack
	{
		OFFSET 0.000000 0.000000 0.000000
		CHANNELS 3 Zrotation Yrotation Xrotation
		JOINT Spine
		{
			OFFSET -0.087000 1.940000 -0.288900
			CHANNELS 3 Zrotation Yrotation Xrotation
			JOINT Spine1
			{
				OFFSET 0.000000 1.950000 0.060000
				CHANNELS 3 Zrotation Yrotation Xrotation
				JOINT Neck
				{
					OFFSET 0.000000 0.000000 0.000000
					CHANNELS 3 Zrotation Yrotation Xrotation
					JOINT Neck1
					{
						OFFSET 0.000000 1.600000 0.340000
						CHANNELS 3 Zrotation Yrotation Xrotation
						JOINT Head
						{
							OFFSET 0.000000 1.667000 -0.240000
							CHANNELS 3 Zrotation Yrotation Xrotation
							End Site
							{
								OFFSET 0.000000 0.000000 0.000000
							}
						}
					}
				}
				JOINT LeftShoulder
				{
					OFFSET 0.000000 0.000000 0.000000
					CHANNELS 3 Zrotation Yrotation Xrotation
					JOINT LeftArm
					{
						OFFSET 2.700000 1.550000 -0.730000
						CHANNELS 3 Zrotation Yrotation Xrotation
						JOINT LeftForeArm
						{
							OFFSET 5.450000 0.000000 0.000000
							CHANNELS 3 Zrotation Yrotation Xrotation
							JOINT LeftHand
							{
								OFFSET 3.450000 0.000000 0.000000
								CHANNELS 3 Zrotation Yrotation Xrotation
								JOINT LeftHandIndex1
								{
									OFFSET 0.750000 0.000000 0.000000
									CHANNELS 3 Zrotation Yrotation Xrotation
									End Site
									{
										OFFSET 0.000000 0.000000 0.000000
									}
								}
							}
						}
					}
				}
				JOINT RightShoulder
				{
					OFFSET 0.000000 0.000000 0.000000
					CHANNELS 3 Zrotation Yrotation Xrotation
					JOINT RightArm
					{
						OFFSET -2.700000 1.550000 -0.730000
						CHANNELS 3 Zrotation Yrotation Xrotation
						JOINT RightForeArm
						{
							OFFSET -5.450000 0.000000 0.000000
							CHANNELS 3 Zrotation Yrotation Xrotation
							JOINT RightHand
							{
								OFFSET -3.450000 0.000000 0.000000
								CHANNELS 3 Zrotation Yrotation Xrotation
								JOINT RightHandIndex1
								{
									OFFSET -0.750000 0.000000 0.000000
									CHANNELS 3 Zrotation Yrotation Xrotation
									End Site
									{
										OFFSET 0.000000 0.000000 0.000000
									}
								}
							}
						}
					}
				}
			}
		}
	}
}
MOTION
Frames: 14
Frame Time: 0.016667
-1.207170 17.219830 -0.720300 -4.056279 -2.532791 -13.590611 -14.981347 13.986298 2.999521 22.882339 0.720633 -1.955407 -7.550198 7.389254 9.890286 -0.142867 5.887553 2.853595 0.572660 0.247410 0.174480 18.326958 -11.091690 1.862669 -9.612809 -0.889449 -6.776343 2.556888 -6.251774 21.730867 -0.580771 -4.059761 3.458544 0.005330 0.543410 0.151170 -3.874944 -3.031021 -7.181323 6.881719 -8.146713 16.216398 -15.719550 -3.102164 19.790205 2.374013 -7.081755 -16.228839 -27.732724 11.545089 56.515510 9.379860 -6.403250 -12.356870 10.457311 -32.046691 5.973100 10.654407 -36.016486 -6.769279 75.463548 -38.869752 -28.429573 -4.034731 2.186603 0.799210 0.041050 0.078980 0.538040 -14.926262 34.938474 8.077202 -27.141911 22.713876 -8.259478 -21.902091 13.477060 -2.003063 2.079667 -1.166940 -0.190390 0.694110 -0.056150 -0.027170 
-1.274960 17.216630 -0.712530 -4.109709 -1.625328 -13.583942 -15.048575 13.987798 3.064506 23.022464 0.673075 -1.622407 -7.311281 7.083762 8.278620 -0.120711 5.853122 2.871800 0.582200 0.271140 0.168090 18.283694 -10.965563 1.823590 -9.341870 -0.865769 -6.696058 2.964981 -6.454586 22.356400 -0.579426 -4.155870 3.425398 0.019190 0.556490 0.162150 -3.735960 -3.260810 -7.182761 6.093876 -8.540402 16.006820 -15.397705 -3.477250 20.402563 2.328153 -7.034754 -15.949065 -27.507487 11.786485 56.211111 8.817530 -6.054580 -11.350390 10.681066 -31.934254 5.978751 9.330398 -35.907078 -6.435769 76.582121 -39.836844 -29.729104 -4.075983 2.201293 0.752570 0.066740 0.059720 0.540980 -15.049809 34.636546 7.806225 -27.746069 23.477652 -7.997027 -20.540524 13.522150 -1.815645 2.058922 -1.180514 -0.169330 0.676300 -0.058400 -0.012580 
-1.348650 17.206060 -0.708130 -3.934978 -0.427788 -13.843535 -15.163086 14.092274 3.139304 23.006384 0.601473 -1.519555 -6.879814 6.814929 7.245007 -0.208061 5.862540 2.857080 0.601550 0.256890 0.211620 18.176140 -10.822552 1.785037 -9.302889 -0.779793 -6.667516 3.488138 -6.827561 23.671633 -0.595315 -4.297925 3.345131 0.052070 0.523710 0.159930 -3.439311 -3.680600 -7.235422 4.110541 -8.832436 16.535825 -14.390328 -3.765486 20.995513 2.295678 -6.632422 -15.675246 -26.363762 11.678577 56.519001 8.638580 -5.475450 -12.249890 11.174488 -31.804001 5.675109 8.265376 -35.734668 -6.389315 77.831856 -39.850365 -30.608611 -4.105021 2.168069 0.807140 0.059750 0.052650 0.506350 -15.410690 34.297807 7.802745 -27.356163 23.525624 -8.014205 -21.154901 13.654656 -1.967197 2.012485 -1.191728 -0.213660 0.668030 -0.046470 -0.072700 
-1.413680 17.200560 -0.700230 -4.256009 -0.683416 -14.053905 -15.154865 14.010604 3.190308 23.457171 0.507928 -0.803222 -6.705009 6.669840 6.278993 -0.271219 5.947038 2.819450 0.622280 0.223780 0.276320 18.194191 -10.799802 1.803585 -8.567690 -0.490687 -7.050881 3.673197 -7.070052 25.288653 -0.624395 -4.444686 3.241427 0.072020 0.467000 0.164570 -3.471769 -3.568807 -7.281633 4.589531 -8.914445 17.077986 -14.480463 -3.717162 21.257815 2.590766 -6.456557 -15.453806 -25.656321 11.309195 56.996767 7.909980 -5.290360 -12.839780 10.546320 -31.679192 5.612385 8.235068 -35.500103 -6.424332 78.214694 -40.339792 -31.282152 -4.075552 2.156150 0.871770 0.035710 0.053460 0.462000 -15.320257 33.993778 7.834184 -27.321038 22.867346 -7.949071 -20.786128 15.198840 -1.924237 1.964199 -1.214040 -0.253420 0.635710 -0.041770 -0.141670 
-1.478330 17.184840 -0.690730 -4.011137 -0.584665 -13.776898 -15.181852 14.048190 3.173181 23.131035 0.443415 -1.049283 -6.216503 6.487679 6.137641 -0.332517 5.868376 2.828941 0.652170 0.233790 0.307920 18.165763 -10.774162 1.814477 -8.415442 -0.175054 -8.070680 3.924057 -7.308173 26.784736 -0.635318 -4.556705 3.169208 0.099520 0.429260 0.166840 -3.392384 -3.638658 -7.279752 4.010231 -8.894160 17.034663 -14.216136 -3.682654 21.138861 2.610993 -6.394440 -15.153599 -25.382590 11.048964 57.234434 7.783640 -5.431060 -13.465170 10.307356 -30.972045 5.547359 7.488083 -35.837253 -5.883668 78.844894 -40.299268 -31.891996 -4.019523 2.166273 0.896720 0.019480 0.053710 0.447350 -15.096156 33.342974 7.610387 -27.049625 23.719459 -7.775768 -20.546474 14.962784 -1.899235 1.944143 -1.224679 -0.263990 0.611260 -0.048740 -0.172380 
-1.546100 17.164860 -0.687690 -3.949877 0.067127 -13.440754 -15.189484 14.064116 3.123118 23.073586 0.392840 -2.132299 -5.928443 6.450426 6.743494 -0.389302 5.773794 2.837762 0.670080 0.266170 0.310780 18.160395 -10.755376 1.831791 -8.254758 0.050510 -8.973532 4.313854 -7.646493 28.127672 -0.655779 -4.695130 3.115712 0.125010 0.422880 0.163730 -3.382818 -3.664012 -7.251368 3.769515 -9.079799 16.781120 -14.413731 -3.882868 21.078511 2.574667 -6.288983 -14.831959 -25.103511 10.957293 57.492649 7.130730 -5.196730 -14.092700 10.832782 -30.151247 5.384426 6.594578 -36.295418 -5.240922 78.931917 -40.213378 -32.184420 -3.989856 2.166374 0.891510 0.024250 0.052960 0.449090 -15.578490 32.336509 7.228750 -25.370038 25.155473 -7.100095 -20.956811 14.273697 -2.039010 1.923797 -1.227544 -0.262580 0.619650 -0.048960 -0.175610 
-1.604010 17.141810 -0.677550 -3.892319 0.330565 -13.329951 -15.163252 14.034715 3.057322 23.118805 0.389558 -2.772236 -5.754602 6.490380 7.333069 -0.447306 5.802732 2.852876 0.622480 0.217350 0.267560 18.192857 -10.756823 1.850663 -8.462585 0.270239 -9.652745 5.077009 -8.177467 29.462617 -0.665352 -4.918221 3.047341 0.125400 0.513570 0.151360 -3.471416 -3.588876 -7.207628 4.057503 -9.176891 16.618809 -14.866534 -3.993651 21.041089 2.202786 -6.425575 -14.477486 -25.265192 11.120947 56.806866 7.422500 -5.237000 -13.594060 11.375472 -29.503560 5.219060 6.132292 -36.510017 -4.764155 78.677238 -40.292890 -32.364668 -4.027390 2.105806 0.883830 0.071150 0.009720 0.456780 -15.484334 31.502840 6.945297 -24.209769 26.236532 -6.661071 -21.114489 14.696731 -2.160496 1.877143 -1.192306 -0.317470 0.693510 -0.006090 -0.165450 
-1.664140 17.111290 -0.667180 -3.796112 0.179442 -13.122769 -15.153966 14.027649 3.015593 23.452228 0.426954 -3.586729 -6.030675 6.762117 8.429239 -0.475458 5.869945 2.837620 0.573990 0.185500 0.238750 18.210595 -10.716458 1.874569 -8.419128 0.655170 -10.659279 5.448466 -8.565490 31.248795 -0.670113 -5.111158 2.989983 0.129170 0.573120 0.094130 -3.508267 -3.609022 -7.188566 4.070024 -9.212210 16.682058 -14.863953 -4.101662 20.771038 1.745736 -6.870148 -14.510664 -26.736852 12.292110 56.204339 8.093290 -4.842600 -13.086170 12.228480 -28.750405 5.345671 5.201757 -36.094066 -4.332998 79.952679 -40.164783 -33.221706 -4.045310 2.021088 0.870500 0.088830 -0.028010 0.450220 -15.469939 30.903810 6.732010 -23.120918 26.873767 -6.555505 -22.554530 16.249302 -2.603782 1.848873 -1.158994 -0.373940 0.774090 0.020470 -0.158460 
-1.711680 17.074770 -0.662930 -4.085942 -0.288087 -12.651248 -15.110202 13.907188 2.969887 24.391633 0.431511 -4.869532 -6.685302 7.261088 10.181868 -0.519089 6.055006 2.751765 0.533920 0.154610 0.180620 18.280440 -10.678447 1.927741 -7.813366 1.266751 -12.204111 5.507968 -8.931526 33.524948 -0.677894 -5.394973 2.909561 0.133530 0.651040 0.087690 -3.665410 -3.414123 -7.166555 5.273952 -9.349825 16.407826 -15.410705 -4.254020 20.500716 1.402046 -7.262108 -14.012191 -27.449538 12.519762 55.047272 7.822700 -4.953270 -12.466100 12.794544 -27.765850 5.379155 4.239903 -36.694851 -3.616174 80.933979 -39.338062 -33.677160 -4.080298 1.996134 0.835020 0.145510 -0.088140 0.448360 -15.469488 29.875991 6.056691 -21.773380 28.646761 -6.239412 -23.809310 17.086361 -3.068758 1.790140 -1.155662 -0.403160 0.816820 0.071710 -0.145350 
-1.759290 17.032530 -0.664910 -4.412318 -0.442976 -12.325031 -15.129304 13.838048 2.980243 25.555024 0.435901 -6.571056 -7.436058 7.921577 12.407547 -0.431722 6.257158 2.648685 0.523960 0.192640 0.142430 18.289360 -10.584238 1.974211 -7.066436 1.730882 -13.461025 5.364933 -9.157085 35.368417 -0.702713 -5.634293 2.829792 0.128270 0.703980 0.134960 -3.649946 -3.408858 -7.210782 5.525996 -9.461602 16.636124 -14.866847 -4.465672 20.632561 1.113659 -7.431380 -13.252264 -26.801726 11.497832 53.072766 6.100460 -4.940480 -11.334120 12.962806 -26.668328 5.266121 3.367721 -37.351983 -3.228397 82.853427 -38.868053 -34.865484 -4.122719 2.056162 0.709460 0.210380 -0.109910 0.468260 -15.147796 28.903959 5.547645 -19.913057 29.486623 -6.326655 -27.626642 19.346509 -4.411680 1.770895 -1.240477 -0.330390 0.791510 0.071710 -0.077330 
-1.811270 16.986600 -0.674450 -4.265895 -0.878902 -12.480389 -15.197672 13.819597 3.051560 26.689539 0.448037 -7.858905 -8.305882 8.711328 14.809927 -0.416036 6.578146 2.481122 0.555380 0.231650 0.136940 18.245147 -10.463678 2.003070 -6.536681 2.219809 -14.579621 4.650882 -9.300568 37.930339 -0.754686 -5.953266 2.712861 0.153780 0.704550 0.174050 -3.483017 -3.554358 -7.319631 4.229200 -9.188309 17.678641 -13.328784 -4.388019 20.876894 0.665843 -7.430637 -12.704075 -25.830150 10.746430 51.913247 5.774160 -4.907370 -11.532030 13.165639 -25.864359 5.015218 2.440415 -36.949019 -2.995311 84.873242 -39.427947 -36.930941 -4.123378 2.105193 0.679560 0.239120 -0.123670 0.471730 -14.434014 28.479362 5.403867 -17.386746 29.825274 -7.241240 -34.572572 21.943126 -6.918249 1.705406 -1.338456 -0.299380 0.747900 0.069670 -0.072180 
-1.854690 16.932740 -0.674530 -4.245809 -1.531164 -11.797669 -15.234225 13.704149 3.173071 27.913231 0.331600 -9.896797 -9.378690 9.683867 17.541225 -0.351968 6.963178 2.296213 0.543320 0.203110 0.106730 18.243332 -10.327724 2.074263 -5.832237 2.853094 -16.647352 3.764898 -9.395672 40.663311 -0.811243 -6.261903 2.591519 0.123700 0.715370 0.228320 -3.423990 -3.568941 -7.474431 4.136916 -8.681186 17.900721 -11.945939 -4.155840 20.437292 0.364252 -7.094404 -12.926253 -25.012828 10.163781 52.463307 6.088140 -5.347600 -10.040670 12.554995 -25.507160 5.089697 0.343152 -37.358522 -1.985386 87.238996 -40.165315 -39.415804 -4.107367 2.137377 0.659760 0.261390 -0.129910 0.478450 -13.181086 28.232961 6.123942 -12.038399 28.721123 -7.720330 -46.336558 27.782735 -12.081100 1.607950 -1.392229 -0.265030 0.682900 0.077120 -0.057980 
-1.905630 16.854950 -0.686330 -4.022912 -2.335072 -10.698718 -15.323350 13.557325 3.334876 29.079831 0.232976 -12.323366 -10.396004 10.751296 20.188134 -0.259800 7.302504 2.118735 0.593460 0.281650 0.129250 18.215330 -10.095185 2.169011 -5.055930 3.714280 -19.627745 2.149933 -9.150613 44.217599 -0.880101 -6.612931 2.467917 0.153840 0.664840 0.220730 -3.253475 -3.691639 -7.642517 3.369507 -7.833402 17.865059 -9.682933 -3.716788 20.345174 -0.234237 -6.920088 -12.812609 -24.446895 9.056328 52.190812 5.984990 -5.923780 -9.747010 12.786263 -23.981524 4.899939 -3.282619 -39.188967 -0.080310 90.514584 -39.600048 -42.150012 -4.015941 2.204252 0.598390 0.249710 -0.126320 0.494110 -12.238633 27.292946 6.739502 -5.420661 28.372090 -7.380651 -61.804659 32.785689 -20.523650 1.525333 -1.410856 -0.211250 0.627760 0.017850 -0.041520 
-1.953430 16.752100 -0.691760 -4.323467 -2.525403 -9.249430 -15.359254 13.191061 3.595926 30.859729 0.020441 -15.406850 -11.736227 12.101038 23.039493 -0.238775 7.887995 1.872382 0.603780 0.266670 0.125020 18.277767 -9.851018 2.264951 -4.073074 4.488557 -22.744491 0.396582 -8.863605 47.511861 -0.952986 -6.993702 2.316419 0.177760 0.661670 0.229700 -3.309274 -3.538848 -7.829778 4.093568 -7.463517 17.352947 -8.529797 -3.766125 20.351432 -0.907045 -6.656049 -12.834514 -23.369462 7.993769 51.850385 6.670520 -6.728230 -9.486920 12.997846 -22.349091 4.900348 -7.701636 -40.339389 2.613466 95.815443 -39.620491 -47.293162 -3.950786 2.216565 0.607540 0.255670 -0.147400 0.501790 -11.156542 25.731478 7.496950 3.909243 29.461801 -5.519235 -79.165470 35.059175 -31.918101 1.421183 -1.400670 -0.234410 0.602310 0.012690 -0.061140 
